<svg width="137" height="121" viewBox="0 0 137 121" fill="none" xmlns="http://www.w3.org/2000/svg">
<path d="M105.491 48.6777H99.1552C91.37 48.6777 85.0033 54.8643 84.6924 62.5858C81.9145 61.2085 78.6029 61.0245 75.4673 62.2155C70.2633 64.1573 67.3132 69.7457 68.4062 75.1941C68.7364 76.8571 69.3398 79.7345 70.4421 84.6872C70.9137 87.0229 72.2727 89.3866 73.8631 91.0748H41.7544V94.8288H80.525C80.525 94.8288 84.7159 94.8092 86.7372 94.1325C88.0747 94.5977 89.4632 94.8288 90.8492 94.8288C92.8848 94.8288 94.9143 94.33 96.7664 93.3406C100.093 91.5638 102.425 88.4279 103.168 84.735C103.871 81.6335 105.49 74.3349 105.49 72.9769C105.532 69.7194 104.192 66.7253 101.887 64.5929C104.197 61.9646 105.491 58.5824 105.491 55.0227V48.6777ZM99.5066 83.9274L99.4964 83.9754C98.9792 86.572 97.3411 88.7777 95.0018 90.0273C92.4253 91.4306 89.3717 91.3677 86.7607 90.1001C84.1528 91.3287 81.1161 91.3677 78.5687 89.9624C76.2546 88.7106 74.6312 86.5111 74.1141 83.9289L74.1058 83.8893C73.3382 80.4413 72.5149 76.655 72.0725 74.5016C70.4853 65.7609 81.7823 61.4614 86.7485 69.3832C89.6357 65.4755 92.8043 64.3421 96.7022 65.7271C99.1715 66.6655 101.791 69.0494 101.741 72.9374C101.709 73.7821 100.58 79.1885 99.5066 83.9274ZM88.4369 62.7768C88.6481 57.0374 93.3734 52.4327 99.1552 52.4327H101.741V55.023C101.741 57.8383 100.651 60.505 98.7153 62.5019C95.4037 60.7859 91.2881 61.2263 88.4369 62.7768Z" fill="#CDB4EB"/>
<path d="M32.23 75.7681H55.0826" stroke="#CDB4EB" stroke-width="4" stroke-linecap="round"/>
<path d="M61.7388 75.8052H61.8778" stroke="#CDB4EB" stroke-width="4" stroke-linecap="round"/>
<path d="M43.8623 58.8486H70.185" stroke="#CDB4EB" stroke-width="4" stroke-linecap="round"/>
<path d="M40.8125 92.9624H44.1586" stroke="#CDB4EB" stroke-width="4" stroke-linecap="round"/>
<path d="M121.419 120.145H16.1074C7.83749 120.145 1.1084 113.406 1.1084 105.121V15.5893C1.1084 7.30572 7.83749 0.56543 16.1074 0.56543H121.419C129.689 0.56543 136.418 7.30572 136.418 15.5893V105.121C136.418 113.406 129.689 120.145 121.419 120.145ZM16.1074 5.04064C10.3008 5.04064 5.57618 9.77307 5.57618 15.5893V105.121C5.57618 110.937 10.3008 115.67 16.1074 115.67H121.419C127.226 115.67 131.951 110.937 131.951 105.121V15.5893C131.951 9.77307 127.226 5.04064 121.419 5.04064H16.1074Z" fill="#CDB4EB"/>
<path d="M134.184 36.3956H3.34229C2.10816 36.3956 1.1084 35.3942 1.1084 34.158C1.1084 32.9231 2.10816 31.9204 3.34229 31.9204H134.184C135.419 31.9204 136.418 32.9231 136.418 34.158C136.418 35.3942 135.419 36.3956 134.184 36.3956Z" fill="#CDB4EB"/>
<path d="M39.2764 25.6887C35.3796 25.6887 32.207 22.5109 32.207 18.6075C32.207 14.703 35.3796 11.5264 39.2764 11.5264C43.1745 11.5264 46.3459 14.703 46.3459 18.6075C46.3459 22.5109 43.1745 25.6887 39.2764 25.6887ZM39.2764 16.0016C37.8429 16.0016 36.6748 17.1703 36.6748 18.6075C36.6748 20.0448 37.8429 21.2135 39.2764 21.2135C40.7113 21.2135 41.8781 20.0448 41.8781 18.6075C41.8781 17.1703 40.7113 16.0016 39.2764 16.0016Z" fill="#CDB4EB"/>
<path d="M17.5557 25.6199C13.6577 25.6199 10.4863 22.4433 10.4863 18.5387C10.4863 14.6341 13.6577 11.4575 17.5557 11.4575C21.4538 11.4575 24.6252 14.6341 24.6252 18.5387C24.6252 22.4433 21.4538 25.6199 17.5557 25.6199ZM17.5557 15.9327C16.1222 15.9327 14.9541 17.1027 14.9541 18.5387C14.9541 19.9759 16.1222 21.1447 17.5557 21.1447C18.9906 21.1447 20.1574 19.9759 20.1574 18.5387C20.1574 17.1027 18.9906 15.9327 17.5557 15.9327Z" fill="#CDB4EB"/>
<path d="M60.9969 25.7558C57.1 25.7558 53.9287 22.5792 53.9287 18.6746C53.9287 14.7713 57.1 11.5947 60.9969 11.5947C64.895 11.5947 68.0663 14.7713 68.0663 18.6746C68.0663 22.5792 64.895 25.7558 60.9969 25.7558ZM60.9969 16.0687C59.5633 16.0687 58.3965 17.2374 58.3965 18.6746C58.3965 20.1119 59.5633 21.2806 60.9969 21.2806C62.4317 21.2806 63.5985 20.1119 63.5985 18.6746C63.5985 17.2374 62.4317 16.0687 60.9969 16.0687Z" fill="#CDB4EB"/>
</svg>
