<?xml version="1.0" encoding="utf-8"?>
<svg viewBox="0 0 133 118.325" fill="none" xmlns="http://www.w3.org/2000/svg">
  <path d="M52.4752 86.0042C51.9729 86.0042 51.4668 85.8301 51.0539 85.4758L36.8452 73.2861C36.3551 72.8652 36.0732 72.2504 36.0732 71.601C36.0732 70.9529 36.3563 70.3381 36.8452 69.9171L51.0539 57.7275C51.9765 56.9349 53.3624 57.0472 54.149 57.9768C54.9344 58.9077 54.8242 60.3039 53.9003 61.0952L41.6558 71.601L53.9003 82.1068C54.8242 82.8994 54.9344 84.2956 54.149 85.2252C53.714 85.74 53.0965 86.0042 52.4752 86.0042Z" fill="#CDB4EB"/>
  <path d="M80.5247 86.0042C79.9035 86.0042 79.2859 85.74 78.8522 85.2252C78.0655 84.2956 78.177 82.8994 79.0997 82.1068L91.3442 71.601L79.0997 61.0952C78.177 60.3039 78.0655 58.9077 78.8522 57.9768C79.6376 57.0472 81.0246 56.9349 81.9461 57.7275L96.1548 69.9171C96.6449 70.3381 96.9267 70.9529 96.9267 71.601C96.9267 72.2504 96.6449 72.8652 96.1548 73.2861L81.9461 85.4758C81.5331 85.8301 81.0271 86.0042 80.5247 86.0042Z" fill="#CDB4EB"/>
  <path d="M61.47 95.147C61.3193 95.147 61.1673 95.131 61.0142 95.0989C59.8281 94.8471 59.0684 93.673 59.3183 92.478L68.1736 50.1178C68.4236 48.9228 69.5877 48.1574 70.775 48.4093C71.9611 48.6611 72.7208 49.8339 72.4708 51.0302L63.6155 93.3903C63.3974 94.4323 62.4858 95.147 61.47 95.147Z" fill="#CDB4EB"/>
  <path d="M118.257 118.225H14.7429C6.61422 118.225 0 111.563 0 103.371V14.8538C0 6.66395 6.61422 0 14.7429 0H118.257C126.386 0 133 6.66395 133 14.8538V103.371C133 111.563 126.386 118.225 118.257 118.225ZM14.7429 4.42453C9.03543 4.42453 4.39151 9.10337 4.39151 14.8538V103.371C4.39151 109.122 9.03543 113.801 14.7429 113.801H118.257C123.965 113.801 128.608 109.122 128.608 103.371V14.8538C128.608 9.10337 123.965 4.42453 118.257 4.42453H14.7429Z" fill="#CDB4EB"/>
  <path d="M130.804 35.4245H2.19575C0.982698 35.4245 0 34.4344 0 33.2123C0 31.9913 0.982698 31 2.19575 31H130.804C132.017 31 133 31.9913 133 33.2123C133 34.4344 132.017 35.4245 130.804 35.4245Z" fill="#CDB4EB"/>
  <path d="M37.5166 24.8384C33.6863 24.8384 30.5679 21.6965 30.5679 17.8374C30.5679 13.9771 33.6863 10.8364 37.5166 10.8364C41.3481 10.8364 44.4653 13.9771 44.4653 17.8374C44.4653 21.6965 41.3481 24.8384 37.5166 24.8384ZM37.5166 15.261C36.1075 15.261 34.9594 16.4165 34.9594 17.8374C34.9594 19.2583 36.1075 20.4139 37.5166 20.4139C38.9269 20.4139 40.0738 19.2583 40.0738 17.8374C40.0738 16.4165 38.9269 15.261 37.5166 15.261Z" fill="#CDB4EB"/>
  <path d="M16.1667 24.7705C12.3352 24.7705 9.21802 21.6299 9.21802 17.7695C9.21802 13.9092 12.3352 10.7686 16.1667 10.7686C19.9983 10.7686 23.1155 13.9092 23.1155 17.7695C23.1155 21.6299 19.9983 24.7705 16.1667 24.7705ZM16.1667 15.1931C14.7576 15.1931 13.6095 16.3498 13.6095 17.7695C13.6095 19.1905 14.7576 20.346 16.1667 20.346C17.5771 20.346 18.724 19.1905 18.724 17.7695C18.724 16.3498 17.5771 15.1931 16.1667 15.1931Z" fill="#CDB4EB"/>
  <path d="M58.8665 24.9055C55.0361 24.9055 51.9189 21.7649 51.9189 17.9045C51.9189 14.0454 55.0361 10.9048 58.8665 10.9048C62.698 10.9048 65.8152 14.0454 65.8152 17.9045C65.8152 21.7649 62.698 24.9055 58.8665 24.9055ZM58.8665 15.3281C57.4573 15.3281 56.3105 16.4836 56.3105 17.9045C56.3105 19.3255 57.4573 20.481 58.8665 20.481C60.2768 20.481 61.4237 19.3255 61.4237 17.9045C61.4237 16.4836 60.2768 15.3281 58.8665 15.3281Z" fill="#CDB4EB"/>
</svg>