<?xml version="1.0" encoding="utf-8"?>
<svg viewBox="0 25.107 162 109.196" fill="none" xmlns="http://www.w3.org/2000/svg">
  <path d="M150.609 58.2188H149.344V34.1719C149.341 31.823 148.407 29.5711 146.746 27.9102C145.085 26.2493 142.833 25.3151 140.484 25.3125H21.5156C19.1668 25.3151 16.9149 26.2493 15.254 27.9102C13.5931 29.5711 12.6588 31.823 12.6562 34.1719V73.4063H11.3906C9.04177 73.4089 6.78986 74.3431 5.12897 76.004C3.46808 77.6649 2.53385 79.9168 2.53125 82.2656V125.297C2.53385 127.646 3.46808 129.898 5.12897 131.559C6.78986 133.219 9.04177 134.154 11.3906 134.156H34.1719C36.5207 134.154 38.7726 133.219 40.4335 131.559C42.0944 129.898 43.0287 127.646 43.0312 125.297V116.438H65.1006L63.835 121.5H58.2188C57.5474 121.5 56.9036 121.767 56.4289 122.241C55.9542 122.716 55.6875 123.36 55.6875 124.031V131.625C55.6875 132.296 55.9542 132.94 56.4289 133.415C56.9036 133.89 57.5474 134.156 58.2188 134.156H103.781C104.453 134.156 105.096 133.89 105.571 133.415C106.046 132.94 106.312 132.296 106.312 131.625V124.031C106.312 123.36 106.046 122.716 105.571 122.241C105.096 121.767 104.453 121.5 103.781 121.5H98.165L96.8994 116.438H108.844V125.297C108.846 127.646 109.781 129.898 111.441 131.559C113.102 133.219 115.354 134.154 117.703 134.156H150.609C152.958 134.154 155.21 133.219 156.871 131.559C158.532 129.898 159.466 127.646 159.469 125.297V67.0781C159.466 64.7293 158.532 62.4774 156.871 60.8165C155.21 59.1556 152.958 58.2213 150.609 58.2188ZM37.9688 125.297C37.9679 126.304 37.5676 127.269 36.8557 127.981C36.1439 128.693 35.1786 129.093 34.1719 129.094H11.3906C10.3839 129.093 9.41862 128.693 8.70675 127.981C7.99488 127.269 7.59459 126.304 7.59375 125.297V82.2656C7.59459 81.2589 7.99488 80.2936 8.70675 79.5818C9.41862 78.8699 10.3839 78.4696 11.3906 78.4688H13.3618L15.3172 84.3318C15.4852 84.8358 15.8076 85.2742 16.2386 85.5848C16.6696 85.8954 17.1875 86.0625 17.7188 86.0625H27.8438C28.375 86.0625 28.8929 85.8954 29.3239 85.5848C29.7549 85.2742 30.0773 84.8358 30.2453 84.3318L32.2007 78.4688H34.1719C35.1786 78.4696 36.1439 78.8699 36.8557 79.5818C37.5676 80.2936 37.9679 81.2589 37.9688 82.2656V125.297ZM18.6996 78.4688H26.8629L26.0181 81H19.5444L18.6996 78.4688ZM101.25 126.563V129.094H60.75V126.563H101.25ZM69.0557 121.5L70.3213 116.438H91.6787L92.9443 121.5H69.0557ZM108.844 111.375H43.0312V101.25H108.844V111.375ZM108.844 67.0781V96.1875H43.0312V82.2656C43.0287 79.9168 42.0944 77.6649 40.4335 76.004C38.7726 74.3431 36.5207 73.4089 34.1719 73.4063H17.7188V34.1719C17.7196 33.1651 18.1199 32.1999 18.8318 31.488C19.5436 30.7761 20.5089 30.3758 21.5156 30.375H140.484C141.491 30.3758 142.456 30.7761 143.168 31.488C143.88 32.1999 144.28 33.1651 144.281 34.1719V58.2188H117.703C115.354 58.2213 113.102 59.1556 111.441 60.8165C109.781 62.4774 108.846 64.7293 108.844 67.0781ZM138.238 63.2813L137.393 65.8125H130.919L130.075 63.2813H138.238ZM154.406 125.297C154.405 126.304 154.005 127.269 153.293 127.981C152.581 128.693 151.616 129.093 150.609 129.094H117.703C116.696 129.093 115.731 128.693 115.019 127.981C114.307 127.269 113.907 126.304 113.906 125.297V67.0781C113.907 66.0714 114.307 65.1061 115.019 64.3943C115.731 63.6824 116.696 63.2821 117.703 63.2813H124.737L126.692 69.1443C126.86 69.6483 127.183 70.0867 127.614 70.3973C128.045 70.7079 128.562 70.875 129.094 70.875H139.219C139.75 70.875 140.268 70.7079 140.699 70.3973C141.13 70.0867 141.452 69.6483 141.62 69.1443L143.576 63.2813H150.609C151.616 63.2821 152.581 63.6824 153.293 64.3943C154.005 65.1061 154.405 66.0714 154.406 67.0781V125.297Z" fill="#CDB4EB"/>
  <path d="M139.219 121.5H129.094C128.422 121.5 127.779 121.767 127.304 122.241C126.829 122.716 126.562 123.36 126.562 124.031C126.562 124.703 126.829 125.346 127.304 125.821C127.779 126.296 128.422 126.563 129.094 126.563H139.219C139.89 126.563 140.534 126.296 141.009 125.821C141.483 125.346 141.75 124.703 141.75 124.031C141.75 123.36 141.483 122.716 141.009 122.241C140.534 121.767 139.89 121.5 139.219 121.5Z" fill="#CDB4EB"/>
  <path d="M27.8437 121.5H17.7187C17.0474 121.5 16.4036 121.767 15.9289 122.241C15.4542 122.716 15.1875 123.36 15.1875 124.031C15.1875 124.703 15.4542 125.346 15.9289 125.821C16.4036 126.296 17.0474 126.563 17.7187 126.563H27.8437C28.5151 126.563 29.1589 126.296 29.6336 125.821C30.1083 125.346 30.375 124.703 30.375 124.031C30.375 123.36 30.1083 122.716 29.6336 122.241C29.1589 121.767 28.5151 121.5 27.8437 121.5Z" fill="#CDB4EB"/>
  <path d="M83.5312 103.781H78.4688C77.7974 103.781 77.1536 104.048 76.6789 104.523C76.2042 104.997 75.9375 105.641 75.9375 106.312C75.9375 106.984 76.2042 107.628 76.6789 108.102C77.1536 108.577 77.7974 108.844 78.4688 108.844H83.5312C84.2026 108.844 84.8464 108.577 85.3211 108.102C85.7958 107.628 86.0625 106.984 86.0625 106.312C86.0625 105.641 85.7958 104.997 85.3211 104.523C84.8464 104.048 84.2026 103.781 83.5312 103.781Z" fill="#CDB4EB"/>
</svg>