<svg width="812" height="604" viewBox="0 0 812 604" fill="none" xmlns="http://www.w3.org/2000/svg">
<g clip-path="url(#clip0)">
<path d="M93.8481 69.9519C100.105 29.2842 143.379 16.5104 164.235 15.2069V3.47587C164.235 3.47587 121.221 -4.34484 93.8481 3.47587C66.4752 11.2966 46.924 51.7036 43.0139 69.9519V242.008C43.0139 261.559 18.2483 288.932 0 300.663C34.4111 319.433 43.0139 350.194 43.0139 363.229V535.284C46.1422 600.978 122.524 606.974 160.325 601.76V590.029C105.58 582.209 97.7586 552.229 93.8481 535.284V363.229C93.8481 344.459 65.1725 313.697 50.8346 300.663C75.8609 288.15 93.8481 257.649 93.8481 242.008V69.9519Z" fill="white"/>
<path d="M717.386 69.9519C711.13 29.2842 667.855 16.5104 647 15.2069V3.47587C647 3.47587 690.013 -4.34484 717.386 3.47587C744.759 11.2966 764.31 51.7036 768.221 69.9519V242.008C768.221 261.559 792.986 288.932 811.234 300.663C776.823 319.433 768.221 350.194 768.221 363.229V535.284C765.092 600.978 688.71 606.974 650.91 601.76V590.029C705.655 582.209 713.476 552.229 717.386 535.284V363.229C717.386 344.459 746.062 313.697 760.4 300.663C735.374 288.15 717.386 257.649 717.386 242.008V69.9519Z" fill="white"/>
<path d="M336.291 285.022V128.608C336.291 124.697 338.098 121.05 340.201 120.787C371.484 116.877 387.728 116.441 414.498 128.608C461.977 150.189 488.282 228.018 434.367 273.833C428.599 279.36 421.836 284.463 414 289C414 289 413.5 289.5 406.677 292.842C402.767 292.842 355.842 292.842 348.022 292.842C340.201 292.842 336.291 285.022 336.291 285.022ZM289.366 144.249V457.077C284.153 466.201 267.468 485.232 242.442 488.36V496.181H391.036V488.36C374.091 485.753 338.637 475.847 332.38 457.077V312.394H391.036C430.139 377.567 508.251 483.795 547.45 496.181C555.612 498.76 606.105 500.091 606.105 484.45V480.539C596.981 483.146 580 479.5 570.912 476.629C561.824 473.758 500.526 398.422 437.96 300.663C490.098 266.773 563.091 178.66 437.96 97.325H234.621V105.145C258.083 105.145 289.366 118.695 289.366 144.249Z" fill="white"/>
</g>
<defs>
<clipPath id="clip0">
<rect width="812" height="604" fill="white"/>
</clipPath>
</defs>
</svg>
