<svg width="55" height="55" viewBox="0 0 55 55" fill="none" xmlns="http://www.w3.org/2000/svg">
<path d="M54.1209 13.972L52.3193 12.1579C51.7523 11.5913 50.9979 11.2792 50.1917 11.2792C49.3859 11.2792 48.6307 11.5913 48.0637 12.1579L27.5123 32.7101L6.93721 12.1351C6.37111 11.5685 5.61586 11.2568 4.81008 11.2568C4.0043 11.2568 3.2486 11.5685 2.68205 12.1351L0.880007 13.938C-0.293336 15.1104 -0.293336 17.0203 0.880007 18.1927L25.3771 42.7779C25.9432 43.344 26.6976 43.7429 27.5105 43.7429H27.5199C28.3261 43.7429 29.0805 43.3436 29.6466 42.7779L54.1209 18.2593C54.6879 17.6932 54.9991 16.9161 55 16.1103C55 15.3041 54.6879 14.5376 54.1209 13.972Z" fill="#2A1742"/>
</svg>
