<svg width="1103" height="789" viewBox="0 0 1103 789" fill="none" xmlns="http://www.w3.org/2000/svg">
<path d="M687 600.5C687 645.511 650.511 682 605.5 682C560.489 682 524 645.511 524 600.5C524 555.489 560.489 519 605.5 519C650.511 519 687 555.489 687 600.5Z" fill="url(#paint0_linear)" fill-opacity="0.65"/>
<path d="M798.47 198.235C798.47 294.47 798.47 294.47 702.235 294.47C606 294.47 606 294.47 606 198.235C606 102 606 102 702.235 102C798.47 102 798.47 102 798.47 198.235Z" fill="url(#paint1_linear)" fill-opacity="0.65"/>
<circle opacity="0.7" cx="857.063" cy="746.063" r="42.063" fill="url(#paint2_linear)" fill-opacity="0.9"/>
<circle cx="88.5033" cy="60.5033" r="32.5033" fill="url(#paint3_linear)"/>
<circle opacity="0.5" cx="1042.38" cy="61.1381" r="60.5453" fill="url(#paint4_linear)" fill-opacity="0.5"/>
<path d="M59.5841 625.416C59.5841 656.39 34.4744 681.5 3.50007 681.5C-27.4743 681.5 -52.584 656.39 -52.584 625.416C-52.584 594.442 -27.4743 569.332 3.50007 569.332C34.4744 569.332 59.5841 594.442 59.5841 625.416Z" fill="url(#paint5_linear)" fill-opacity="0.5"/>
<defs>
<linearGradient id="paint0_linear" x1="545.172" y1="519" x2="672.628" y2="681.602" gradientUnits="userSpaceOnUse">
<stop stop-color="#FAEFFD" stop-opacity="0.24"/>
<stop offset="1" stop-color="#FBEBFF"/>
</linearGradient>
<linearGradient id="paint1_linear" x1="631" y1="102" x2="781.5" y2="294" gradientUnits="userSpaceOnUse">
<stop stop-color="#FAEFFD" stop-opacity="0.47"/>
<stop offset="1" stop-color="#FBEBFF"/>
</linearGradient>
<linearGradient id="paint2_linear" x1="890.5" y1="778" x2="815" y2="704" gradientUnits="userSpaceOnUse">
<stop stop-color="#C196D3"/>
<stop offset="1" stop-color="#EDCCFB" stop-opacity="0.63"/>
</linearGradient>
<linearGradient id="paint3_linear" x1="56" y1="28" x2="88.5033" y2="93.0065" gradientUnits="userSpaceOnUse">
<stop stop-color="#DEC0E7" stop-opacity="0.27"/>
<stop offset="1" stop-color="#DEC0E7"/>
</linearGradient>
<linearGradient id="paint4_linear" x1="982" y1="1" x2="1103" y2="122" gradientUnits="userSpaceOnUse">
<stop stop-color="#B865D8" stop-opacity="0.42"/>
<stop offset="1" stop-color="#7F349B"/>
</linearGradient>
<linearGradient id="paint5_linear" x1="3.50007" y1="569.332" x2="3.50007" y2="681.5" gradientUnits="userSpaceOnUse">
<stop stop-color="#CDB4EB" stop-opacity="0.28"/>
<stop offset="1" stop-color="#CDB4EB"/>
</linearGradient>
</defs>
</svg>
