<svg width="31" height="32" viewBox="0 0 31 32" fill="none" xmlns="http://www.w3.org/2000/svg">
<path d="M15.295 0.560547C6.84453 0.560547 0 7.55075 0 16.172C0 23.0708 4.38203 28.9212 10.458 30.9838C11.2227 31.1308 11.5031 30.6475 11.5031 30.2332C11.5031 29.8625 11.4904 28.8801 11.484 27.5787C7.22946 28.52 6.33215 25.4843 6.33215 25.4843C5.63622 23.6825 4.63057 23.2006 4.63057 23.2006C3.2451 22.2328 4.73764 22.2527 4.73764 22.2527C6.27352 22.3612 7.08033 23.8612 7.08033 23.8612C8.44414 26.2482 10.6606 25.5585 11.535 25.16C11.6727 24.1498 12.0665 23.4627 12.5037 23.0722C9.10693 22.6816 5.53681 21.3392 5.53681 15.3578C5.53681 13.6539 6.12949 12.2612 7.11092 11.169C6.93885 10.7744 6.42264 9.18709 7.24475 7.03707C7.24475 7.03707 8.52571 6.61872 11.4509 8.63767C12.6745 8.29081 13.9746 8.1187 15.2747 8.11076C16.5747 8.1187 17.8748 8.29081 19.0984 8.63767C22.0045 6.61872 23.2854 7.03707 23.2854 7.03707C24.1075 9.18709 23.5913 10.7744 23.4384 11.169C24.4134 12.2612 25.0061 13.6539 25.0061 15.3578C25.0061 21.3551 21.4309 22.675 18.0278 23.0589C18.5631 23.5276 19.0602 24.4848 19.0602 25.9477C19.0602 28.0368 19.0411 29.7155 19.0411 30.2226C19.0411 30.6317 19.3087 31.1202 20.0926 30.964C26.2119 28.9146 30.5901 23.0603 30.5901 16.172C30.5901 7.55075 23.7417 0.560547 15.295 0.560547Z" fill="#CDB4EB"/>
</svg>
