<svg width="400" height="276" viewBox="0 0 400 276" fill="none" xmlns="http://www.w3.org/2000/svg">
<path d="M240 129C210.5 145.5 184.5 144 158.5 129C60.5 151.5 73 200.5 73 235.5C73 251 79 252.814 85.5 255.5C169 290 277.5 271.542 316 255.5C328 250.5 326 242.5 326 235.5C326 194.5 336 152 240 129Z" fill="white"/>
<path d="M76.5 152C65.5 150 62.5 149 56 144C23 152 -1.35898e-05 173 0 189V218.5C0 226 1.5 227 8 229C14.5 231 36 237.5 57.5 240C56 196 57.5 178.5 76.5 152Z" fill="white"/>
<path d="M323 152C334 150 337 149 343.5 144C376.5 152 399.5 173 399.5 189V218.5C399.5 226 398 227 391.5 229C385 231 363.5 237.5 342 240C343.5 196 342 178.5 323 152Z" fill="white"/>
<circle cx="200" cy="62" r="62" fill="white"/>
<circle cx="314" cy="96" r="41" fill="white"/>
<circle cx="86" cy="96" r="41" fill="white"/>
</svg>
