<svg width="31" height="32" viewBox="0 0 31 32" fill="none" xmlns="http://www.w3.org/2000/svg">
<path d="M27.9088 16.0109H25.7483C25.3009 16.0109 24.9382 16.3877 24.9382 16.8525V27.0839C24.9382 27.627 24.5127 28.0688 23.9898 28.0688H5.11182C4.58909 28.0688 4.16391 27.627 4.16391 27.0839V7.47578C4.16391 6.93259 4.58909 6.49062 5.11182 6.49062H15.4665C15.9139 6.49062 16.2767 6.11384 16.2767 5.64909V3.40501C16.2767 2.94026 15.9139 2.56348 15.4665 2.56348H5.11182C2.50433 2.56348 0.383057 4.76717 0.383057 7.47578V27.084C0.383057 29.7926 2.50444 31.9961 5.11182 31.9961H23.9897C26.5974 31.9961 28.7189 29.7925 28.7189 27.084V16.8526C28.719 16.3877 28.3563 16.0109 27.9088 16.0109Z" fill="#CDB4EB"/>
<path d="M30.163 0.220703H21.5694C21.1219 0.220703 20.7592 0.597487 20.7592 1.06224V3.30633C20.7592 3.77109 21.1219 4.14787 21.5694 4.14787H24.5189L13.4199 15.6761C13.1035 16.0048 13.1035 16.5375 13.4199 16.8663L14.9476 18.4532C15.0996 18.6111 15.3056 18.6997 15.5206 18.6997C15.7354 18.6997 15.9415 18.6111 16.0934 18.4532L27.1924 6.92471V9.98824C27.1924 10.453 27.5551 10.8298 28.0025 10.8298H30.163C30.6105 10.8298 30.9732 10.453 30.9732 9.98824V1.06224C30.9732 0.597487 30.6105 0.220703 30.163 0.220703Z" fill="#CDB4EB"/>
</svg>
