<svg width="24" height="24" viewBox="0 0 24 24" fill="none" xmlns="http://www.w3.org/2000/svg">
<path d="M20.9669 3.20996H3.03313C1.3607 3.20996 0 4.57066 0 6.24309V17.7567C0 19.4291 1.3607 20.7898 3.03313 20.7898H20.9669C22.6393 20.7898 24 19.4291 24 17.7567V6.24309C24 4.57066 22.6393 3.20996 20.9669 3.20996ZM20.493 5.16648L12 11.7272L3.507 5.16648H20.493ZM20.9669 18.8334H3.03313C2.43952 18.8334 1.95652 18.3504 1.95652 17.7568V6.44109L11.402 13.7376C11.578 13.8737 11.7891 13.9416 12 13.9416C12.2109 13.9416 12.422 13.8737 12.598 13.7376L22.0435 6.44109V17.7567C22.0435 18.3504 21.5605 18.8334 20.9669 18.8334Z" fill="#CDB4EB"/>
</svg>
