<svg width="234" height="233" viewBox="0 0 234 233" fill="none" xmlns="http://www.w3.org/2000/svg">
<g clip-path="url(#clip0)">
<path d="M125.412 8.82812C120.535 4.45547 113.179 4.45592 108.301 8.82834C98.4596 17.6505 80.6945 36.4075 72.2646 62.9006C67.9674 76.4065 66.3595 93.6272 67.8533 110.147C67.8717 110.351 67.8933 110.552 67.9126 110.755L52.1794 129.123C49.5897 132.146 48.561 136.117 49.3564 140.017L55.3184 169.244C55.9217 172.201 57.9628 174.617 60.778 175.705C63.5937 176.794 66.7286 176.379 69.1645 174.597L85.7544 162.457C85.9829 162.787 86.211 163.117 86.4436 163.443C88.8261 166.781 92.715 168.775 96.8471 168.775L136.866 168.775C140.292 168.775 143.551 167.404 145.923 165.033C146.411 164.544 146.862 164.013 147.269 163.442C147.502 163.116 147.73 162.786 147.959 162.457L164.549 174.597C166.985 176.379 170.12 176.794 172.935 175.706C174.106 175.253 175.143 174.571 175.998 173.715C177.199 172.514 178.043 170.971 178.395 169.244L184.357 140.017C185.152 136.117 184.123 132.146 181.533 129.123L165.8 110.756C165.819 110.553 165.841 110.351 165.86 110.148C167.354 93.6277 165.746 76.4067 161.448 62.9008C153.018 36.4066 135.252 17.6503 125.412 8.82812V8.82812ZM174.903 138.089L169.201 166.046L153.032 154.215C158.054 145.01 161.741 134.624 163.957 123.434L174.206 135.399C174.846 136.145 175.1 137.126 174.903 138.089V138.089ZM136.866 159.127L96.8469 159.127C95.8256 159.127 94.8721 158.646 94.2968 157.839C91.3345 153.687 88.8727 149.376 86.827 145.042L146.873 145.042C144.414 150.245 141.801 154.496 139.416 157.839C138.839 158.646 137.887 159.127 136.866 159.127V159.127ZM59.5066 135.399L69.7557 123.434C71.9717 134.625 75.6585 145.011 80.6802 154.215L64.5123 166.047L58.8096 138.089C58.6132 137.126 58.8674 136.145 59.5066 135.399V135.399ZM156.251 109.278C155.337 119.385 153.313 128.059 150.788 135.395L82.9226 135.395C79.6376 125.807 78.124 116.602 77.4618 109.278C76.0792 93.9904 77.5359 78.1525 81.4583 65.8254C89.1947 41.5103 105.633 24.1794 114.742 16.0112C115.947 14.9301 117.766 14.9301 118.972 16.0114C128.081 24.1789 144.518 41.5106 152.255 65.8259C156.177 78.1525 157.634 93.9901 156.251 109.278Z" fill="white"/>
<path d="M133.903 90.396C138.269 86.029 140.975 79.9984 140.975 73.3497C140.975 66.9073 138.466 60.8507 133.911 56.2955C129.356 51.7402 123.299 49.2313 116.857 49.2313C103.557 49.2311 92.7383 60.0512 92.7385 73.3497C92.7383 79.7921 95.2472 85.8489 99.8024 90.4042C104.358 94.9594 110.415 97.4681 116.857 97.4681C123.507 97.4681 129.536 94.7645 133.903 90.396ZM102.385 73.3499C102.385 69.3602 104.008 65.7425 106.628 63.1222C109.249 60.5017 112.867 58.8787 116.856 58.879C120.722 58.879 124.356 60.3843 127.089 63.1174C129.822 65.8506 131.327 69.4846 131.327 73.3499C131.328 81.3291 124.835 87.8209 116.856 87.8212C112.991 87.8212 109.357 86.316 106.624 83.5829C103.891 80.8498 102.385 77.2153 102.385 73.3499Z" fill="white"/>
<path d="M99.8559 208.897C100.729 208.024 101.269 206.818 101.268 205.486L101.268 183.213C101.268 180.549 99.1089 178.389 96.4447 178.389C93.7807 178.389 91.6208 180.549 91.6208 183.213L91.6211 205.486C91.6211 208.15 93.7807 210.309 96.4449 210.309C97.7768 210.31 98.9829 209.77 99.8559 208.897V208.897Z" fill="white"/>
<path d="M116.856 178.389C114.192 178.389 112.033 180.549 112.033 183.213L112.033 226.034C112.033 228.699 114.192 230.858 116.857 230.858C118.189 230.858 119.394 230.318 120.267 229.445C121.14 228.572 121.681 227.366 121.68 226.034L121.68 183.213C121.68 180.549 119.521 178.389 116.856 178.389V178.389Z" fill="white"/>
<path d="M132.444 183.213L132.444 205.486C132.444 208.15 134.604 210.31 137.268 210.31C138.6 210.31 139.806 209.77 140.679 208.897C141.552 208.024 142.092 206.818 142.092 205.486L142.092 183.213C142.092 180.549 139.932 178.389 137.268 178.389C134.604 178.389 132.444 180.549 132.444 183.213Z" fill="white"/>
</g>
<defs>
<clipPath id="clip0">
<rect width="164.654" height="164.654" fill="white" transform="translate(0.428223 116.428) rotate(-45)"/>
</clipPath>
</defs>
</svg>
