<svg width="55" height="33" viewBox="0 0 55 33" fill="none" xmlns="http://www.w3.org/2000/svg">
<path d="M54.1209 2.97198L52.3193 1.15786C51.7523 0.591311 50.9979 0.279194 50.1917 0.279194C49.3859 0.279194 48.6307 0.591311 48.0637 1.15786L27.5123 21.7101L6.93721 1.13505C6.37111 0.568505 5.61586 0.256836 4.81008 0.256836C4.0043 0.256836 3.2486 0.568505 2.68205 1.13505L0.880007 2.938C-0.293336 4.11044 -0.293336 6.02026 0.880007 7.19271L25.3771 31.7779C25.9432 32.344 26.6976 32.7429 27.5105 32.7429H27.5199C28.3261 32.7429 29.0805 32.3436 29.6466 31.7779L54.1209 7.25933C54.6879 6.69323 54.9991 5.91607 55 5.11029C55 4.30406 54.6879 3.53764 54.1209 2.97198Z" fill="#B5A0D0"/>
</svg>
