<svg width="59" height="90" viewBox="0 0 59 90" fill="none" xmlns="http://www.w3.org/2000/svg">
<path d="M14.7529 90C22.8933 90 29.5 83.28 29.5 75V60H14.7529C6.61254 60 0.00585938 66.72 0.00585938 75C0.00585938 83.28 6.61254 90 14.7529 90Z" fill="#CDB4EB"/>
<path d="M0.00585938 45C0.00585938 36.72 6.61254 30 14.7529 30H29.5V60H14.7529C6.61254 60 0.00585938 53.28 0.00585938 45Z" fill="#CDB4EB"/>
<path d="M0.00585938 15C0.00585938 6.72 6.61254 0 14.7529 0H29.5V30H14.7529C6.61254 30 0.00585938 23.28 0.00585938 15Z" fill="#CDB4EB"/>
<path d="M29.5 0H44.2471C52.3874 0 58.9941 6.72 58.9941 15C58.9941 23.28 52.3874 30 44.2471 30H29.5V0Z" fill="#CDB4EB"/>
<path d="M58.9941 45C58.9941 53.28 52.3874 60 44.2471 60C36.1067 60 29.5 53.28 29.5 45C29.5 36.72 36.1067 30 44.2471 30C52.3874 30 58.9941 36.72 58.9941 45Z" fill="#CDB4EB"/>
</svg>
