<svg width="91" height="91" viewBox="0 0 91 91" fill="none" xmlns="http://www.w3.org/2000/svg">
<g clip-path="url(#clip0)">
<path d="M89.2838 41.4459L49.5523 1.7166C47.2656 -0.57155 43.5545 -0.57155 41.2649 1.7166L33.0145 9.96703L43.4806 20.4331C45.9127 19.6113 48.7017 20.1626 50.6404 22.1013C52.5884 24.0525 53.1358 26.8653 52.2941 29.3052L62.3805 39.392C64.8208 38.5513 67.6365 39.0952 69.5855 41.0474C72.3095 43.7703 72.3095 48.1835 69.5855 50.9081C66.8608 53.6332 62.4477 53.6332 59.7216 50.9081C57.6727 48.8571 57.1665 45.848 58.2037 43.3239L48.7973 33.9174L48.7963 58.6712C49.4781 59.0084 50.1009 59.4537 50.6404 59.99C53.3644 62.7129 53.3644 67.1264 50.6404 69.8532C47.9158 72.5768 43.5005 72.5768 40.7797 69.8532C38.0558 67.1264 38.0558 62.7133 40.7797 59.9904C41.4325 59.3373 42.2083 58.82 43.0622 58.4686V33.4841C42.207 33.135 41.4308 32.6175 40.7797 31.9624C38.7159 29.9014 38.2196 26.8731 39.2772 24.339L28.96 14.0208L1.71691 41.2621C-0.572305 43.5524 -0.572305 47.2639 1.71691 49.5524L41.4491 89.2824C43.7365 91.5709 47.4469 91.5709 49.7372 89.2824L89.2834 49.7369C91.572 47.4477 91.572 43.7341 89.2834 41.4459" fill="#CDB4EB"/>
</g>
<defs>
<clipPath id="clip0">
<rect width="91" height="91" fill="white"/>
</clipPath>
</defs>
</svg>
