<svg width="90" height="90" viewBox="0 0 90 90" fill="none" xmlns="http://www.w3.org/2000/svg">
<path d="M0 0H90V90H0V0Z" fill="#CDB4EB"/>
<path d="M82.6339 68.5351C81.9751 64.4286 79.2974 60.9809 71.3667 57.7641C68.612 56.498 65.5407 55.5912 64.6253 53.5037C64.3002 52.2889 64.2574 51.6044 64.4628 50.8687C65.0531 48.4818 67.9019 47.7375 70.1605 48.4219C71.6148 48.9096 72.9922 50.0304 73.8221 51.8183C77.7061 49.3032 77.6975 49.3202 80.4095 47.5922C79.4171 46.0522 78.8867 45.3421 78.2365 44.6834C75.901 42.0741 72.7185 40.7309 67.6282 40.8336C66.747 40.9448 65.8573 41.0645 64.9761 41.1758C62.4353 41.8174 60.0141 43.152 58.5939 44.9401C54.3335 49.7737 55.5483 58.2347 60.7327 61.7167C65.8401 65.5494 73.343 66.422 74.3012 70.0066C75.2337 74.3954 71.076 75.8155 66.9437 75.3108C63.8981 74.6777 62.2043 73.1293 60.3734 70.3146C57.0028 72.2652 57.0028 72.2652 53.5379 74.2585C54.3592 76.0551 55.2232 76.8679 56.6007 78.4249C63.1197 85.038 79.4342 84.7129 82.3602 74.7034C82.4799 74.3611 83.267 72.0683 82.6339 68.5351ZM48.9266 41.3639H40.5084C40.5084 48.6358 40.4743 55.8563 40.4743 63.1282C40.4743 67.7566 40.7138 71.9999 39.961 73.3003C38.729 75.8582 35.5379 75.5417 34.0836 75.0454C32.6035 74.3183 31.8507 73.2831 30.9781 71.8202C30.7385 71.401 30.5589 71.0759 30.4989 71.0503C28.2148 72.4448 25.939 73.8477 23.6548 75.2423C24.7927 77.5779 26.4694 79.6054 28.6168 80.9228C31.8249 82.8477 36.1367 83.438 40.6454 82.4029C43.5798 81.5474 46.112 79.7765 47.438 77.0817C49.3544 73.5484 48.9438 69.2708 48.9266 64.5398C48.9694 56.8231 48.9266 49.1063 48.9266 41.3639Z" fill="#F8F5FC"/>
</svg>
