<svg width="90" height="90" viewBox="0 0 90 90" fill="none" xmlns="http://www.w3.org/2000/svg">
<path d="M30.5259 25.667C28.2487 25.667 26.7031 25.8885 25.8994 26.1152V40.752C26.8577 40.9684 28.0272 41.0405 29.6449 41.0405C35.6058 41.0405 39.2843 38.0266 39.2843 32.9467C39.2791 28.3924 36.1158 25.667 30.5259 25.667Z" fill="#CDB4EB"/>
<path d="M84.4925 0.00927734H5.51262C2.4678 0.00927734 0 2.47193 0 5.50644V84.4812C0 87.5209 2.4678 89.9887 5.51262 89.9887H84.4925C87.5322 89.9887 90 87.5209 90 84.4812V5.5116C90 2.47193 87.5322 0.00927734 84.4925 0.00927734ZM45.8217 44.4297C42.0041 48.0361 36.3318 49.6538 29.7218 49.6538C28.2432 49.6538 26.9243 49.5817 25.8939 49.4323V67.1654H14.781V18.2421C18.238 17.66 23.0912 17.2169 29.9382 17.2169C36.847 17.2169 41.7826 18.5358 45.085 21.1891C48.2638 23.6929 50.3915 27.8145 50.3915 32.6677C50.3915 37.5209 48.7687 41.627 45.8217 44.4297ZM62.5708 67.897C57.8516 67.897 53.6631 66.8769 50.9377 65.3983L52.9212 57.3818C54.982 58.6234 59.253 60.0969 62.5708 60.0969C65.9454 60.0969 67.3467 58.9222 67.3467 57.0778C67.3467 55.2437 66.2442 54.3627 62.0556 52.9614C54.6265 50.4627 51.7517 46.4132 51.8238 42.1474C51.8238 35.4601 57.5631 30.3699 66.4657 30.3699C70.6594 30.3699 74.4101 31.3333 76.6151 32.4307L74.6316 40.1587C73.0139 39.2725 69.9279 38.103 66.8315 38.103C64.1164 38.103 62.576 39.2056 62.576 41.0448C62.576 42.7347 63.9619 43.6157 68.3771 45.1664C75.2189 47.5157 78.0938 50.9779 78.1607 56.2638C78.1607 62.9665 72.8542 67.897 62.5708 67.897Z" fill="#CDB4EB"/>
</svg>
