<svg width="106" height="120" viewBox="0 0 106 120" fill="none" xmlns="http://www.w3.org/2000/svg">
<path d="M106 60.0105C106 53.0341 97.2063 46.4226 83.724 42.3226C86.8353 28.6702 85.4525 17.8085 79.3596 14.331C77.9552 13.5153 76.3131 13.1289 74.5198 13.1289V17.9158C75.5137 17.9158 76.3131 18.109 76.9829 18.4739C79.9213 20.1483 81.1961 26.5236 80.2022 34.7236C79.9645 36.7414 79.5756 38.8666 79.1003 41.0346C74.8655 40.0043 70.2417 39.21 65.3803 38.6948C62.4635 34.7236 59.4387 31.1174 56.3922 27.9619C63.4358 21.4577 70.0473 17.8943 74.5414 17.8943V13.1074C68.5997 13.1074 60.8214 17.3148 52.9568 24.6132C45.0921 17.3577 37.3139 13.1933 31.3722 13.1933V17.9802C35.8447 17.9802 42.4778 21.5221 49.5214 27.9833C46.4965 31.1388 43.4717 34.7236 40.598 38.6948C35.715 39.21 31.0913 40.0043 26.8565 41.0561C26.3596 38.9095 25.9923 36.8273 25.733 34.831C24.7175 26.631 25.9706 20.2556 28.8875 18.5598C29.5357 18.1734 30.3783 18.0017 31.3722 18.0017V13.2148C29.5573 13.2148 27.9152 13.6011 26.4892 14.4168C20.4179 17.8943 19.0567 28.7346 22.1896 42.3441C8.75051 46.4655 0 53.0556 0 60.0105C0 66.987 8.79372 73.5985 22.276 77.6985C19.1647 91.3508 20.5475 102.213 26.6404 105.69C28.0448 106.506 29.6869 106.892 31.5018 106.892C37.4435 106.892 45.2218 102.685 53.0864 95.3864C60.9511 102.642 68.7293 106.806 74.671 106.806C76.4859 106.806 78.128 106.42 79.554 105.604C85.6254 102.127 86.9865 91.2864 83.8536 77.677C97.2495 73.577 106 66.9655 106 60.0105ZM77.8687 45.6927C77.0693 48.4618 76.0754 51.3168 74.9519 54.1718C74.066 52.4545 73.137 50.7372 72.1215 49.02C71.1276 47.3027 70.0689 45.6283 69.0102 43.9969C72.0783 44.4477 75.0383 45.0058 77.8687 45.6927ZM67.9731 68.554C66.2878 71.4519 64.5593 74.1995 62.766 76.754C59.5467 77.033 56.2841 77.1833 53 77.1833C49.7375 77.1833 46.4749 77.033 43.2772 76.7754C41.4839 74.221 39.7338 71.4948 38.0485 68.6184C36.4064 65.8063 34.9156 62.9514 33.5544 60.0749C34.894 57.1985 36.4064 54.3221 38.0269 51.51C39.7122 48.6121 41.4407 45.8645 43.234 43.31C46.4533 43.031 49.7159 42.8807 53 42.8807C56.2625 42.8807 59.5251 43.031 62.7228 43.2886C64.5161 45.843 66.2662 48.5692 67.9515 51.4456C69.5936 54.2577 71.0844 57.1126 72.4456 59.9891C71.0844 62.8655 69.5936 65.7419 67.9731 68.554ZM74.9519 65.7634C76.1186 68.6398 77.1125 71.5163 77.9336 74.3069C75.1031 74.9938 72.1215 75.5733 69.0318 76.0241C70.0905 74.3713 71.1492 72.6754 72.1431 70.9367C73.137 69.2194 74.066 67.4807 74.9519 65.7634ZM53.0432 88.6676C51.0338 86.6068 49.0245 84.31 47.0367 81.7985C48.9813 81.8843 50.969 81.9487 52.9784 81.9487C55.0094 81.9487 57.0188 81.9058 58.9849 81.7985C57.0404 84.31 55.031 86.6068 53.0432 88.6676ZM36.9682 76.0241C33.9001 75.5733 30.9401 75.0152 28.1097 74.3283C28.9091 71.5592 29.903 68.7042 31.0265 65.8493C31.9124 67.5666 32.8414 69.2838 33.8569 71.0011C34.8724 72.7184 35.9095 74.3927 36.9682 76.0241ZM52.9352 31.3535C54.9446 33.4142 56.9539 35.7111 58.9417 38.2226C56.9971 38.1367 55.0094 38.0723 53 38.0723C50.969 38.0723 48.9596 38.1153 46.9935 38.2226C48.938 35.7111 50.9474 33.4142 52.9352 31.3535ZM36.9466 43.9969C35.8879 45.6498 34.8292 47.3456 33.8353 49.0844C32.8414 50.8016 31.9124 52.5189 31.0265 54.2362C29.8598 51.3598 28.8659 48.4833 28.0448 45.6927C30.8753 45.0273 33.8569 44.4477 36.9466 43.9969ZM17.393 70.8723C9.7444 67.6309 4.79658 63.3807 4.79658 60.0105C4.79658 56.6404 9.7444 52.3687 17.393 49.1488C19.2511 48.3545 21.2821 47.6461 23.3779 46.9807C24.6095 51.188 26.2299 55.5671 28.2393 60.0535C26.2515 64.5184 24.6527 68.876 23.4427 73.0618C21.3037 72.3964 19.2727 71.6665 17.393 70.8723ZM29.0171 101.547C26.0787 99.8728 24.8039 93.4974 25.7978 85.2974C26.0355 83.2796 26.4244 81.1545 26.8997 78.9864C31.1345 80.0168 35.7583 80.811 40.6197 81.3262C43.5365 85.2974 46.5614 88.9037 49.6078 92.0592C42.5642 98.5634 35.9527 102.127 31.4586 102.127C30.4863 102.105 29.6653 101.912 29.0171 101.547ZM80.267 85.1901C81.2825 93.3901 80.0294 99.7655 77.1125 101.461C76.4643 101.848 75.6217 102.019 74.6278 102.019C70.1553 102.019 63.5222 98.4775 56.4786 92.0163C59.5035 88.8608 62.5283 85.276 65.402 81.3048C70.285 80.7896 74.9087 79.9953 79.1435 78.9435C79.6404 81.1116 80.0294 83.1938 80.267 85.1901ZM88.5854 70.8723C86.7273 71.6665 84.6963 72.3749 82.6005 73.0404C81.3689 68.833 79.7485 64.454 77.7391 59.9676C79.7269 55.5027 81.3257 51.1451 82.5357 46.9592C84.6747 47.6247 86.7057 48.3545 88.607 49.1488C96.2556 52.3901 101.203 56.6404 101.203 60.0105C101.182 63.3807 96.234 67.6524 88.5854 70.8723Z" fill="#CDB4EB"/>
<path d="M52.9785 69.8205C58.4318 69.8205 62.8526 65.4285 62.8526 60.0106C62.8526 54.5927 58.4318 50.2007 52.9785 50.2007C47.5253 50.2007 43.1045 54.5927 43.1045 60.0106C43.1045 65.4285 47.5253 69.8205 52.9785 69.8205Z" fill="#CDB4EB"/>
</svg>
