<svg width="132" height="98" viewBox="0 0 132 98" fill="none" xmlns="http://www.w3.org/2000/svg">
<g clip-path="url(#clip0)">
<path d="M113.592 56.2991C108.977 56.3249 104.981 57.422 101.63 59.0556C100.392 56.6311 99.1547 54.5126 98.9487 52.9306C98.7167 51.0931 98.4331 49.9699 98.7167 47.7754C99 45.5803 100.289 42.4668 100.289 42.2116C100.263 41.9819 100.005 40.859 97.35 40.8335C94.6948 40.8079 92.4 41.3439 92.1422 42.0329C91.8844 42.722 91.3688 44.3043 91.0336 45.9376C90.5696 48.3366 85.7227 56.835 82.9641 61.3012C82.0618 59.5657 81.2883 58.0345 81.1334 56.8092C80.9016 54.972 80.6177 53.8488 80.9016 51.6543C81.1852 49.4592 82.4743 46.346 82.4743 46.0907C82.4485 45.8611 82.1907 44.7381 79.5354 44.7126C76.8797 44.6871 74.5854 45.223 74.3276 45.9121C74.0698 46.6012 73.7862 48.2345 73.219 49.8168C72.6774 51.3991 66.2321 65.5887 64.5563 69.2892C63.7055 71.1777 62.9581 72.6835 62.4164 73.7043C61.875 74.7251 62.3907 73.7809 62.3391 73.8829C61.875 74.7506 61.6172 75.2355 61.6172 75.2355V75.2613C61.2563 75.8993 60.8696 76.5116 60.6888 76.5116C60.5599 76.5116 60.3021 74.8017 60.7404 72.454C61.6943 67.5283 64.0146 59.8467 63.9891 59.566C63.9891 59.4384 64.4271 58.0855 62.4935 57.3967C60.6115 56.7077 59.9414 57.8561 59.7865 57.8561C59.6318 57.8561 59.5029 58.2644 59.5029 58.2644C59.5029 58.2644 61.5912 49.6131 55.5068 49.6131C51.6912 49.6131 46.4318 53.722 43.8279 57.4735C42.1779 58.3668 38.6716 60.2551 34.9592 62.2715C33.5412 63.0371 32.0717 63.8538 30.6795 64.5939L30.3961 64.2871C23.0227 56.5032 9.38441 50.9907 9.9516 40.5272C10.1578 36.7246 11.4985 26.6949 36.1456 14.547C56.3323 4.59387 72.4972 7.3246 75.3071 13.3986C79.3032 22.0756 66.6703 38.2048 45.6847 40.5272C37.6925 41.4204 33.4899 38.3579 32.4331 37.2095C31.3245 36.01 31.1698 35.959 30.7573 36.1887C30.087 36.546 30.4995 37.6178 30.7573 38.2558C31.3761 39.8637 33.9542 42.722 38.337 44.1512C42.1782 45.4017 51.5628 46.0907 62.9065 41.7522C75.6167 36.8777 85.5425 23.3517 82.6292 12.046C79.6644 0.536056 60.38 -3.24103 42.1526 3.1647C31.2985 6.99283 19.5422 12.9647 11.086 20.7996C1.03128 30.0892 -0.567153 38.2048 0.10316 41.5736C2.44951 53.5939 19.1813 61.4288 25.8844 67.222C25.5493 67.4004 25.2399 67.579 24.9563 67.7324C21.6047 69.3655 8.843 75.9756 5.64613 82.9681C2.03675 90.8796 6.21332 96.571 8.99769 97.3366C17.6086 99.71 26.4258 95.448 31.1953 88.4298C35.9388 81.4116 35.3719 72.3006 33.1805 68.1407L33.1029 67.9876L35.7326 66.4564C37.4344 65.4611 39.1102 64.5423 40.5795 63.7509C39.7547 65.9712 39.1615 68.5999 38.8524 72.428C38.4914 76.9199 40.3477 82.7384 42.7969 85.0353C43.8797 86.0303 45.1688 86.0561 45.968 86.0561C48.8039 86.0561 50.093 83.7335 51.511 80.952C53.2641 77.5577 54.811 73.6275 54.811 73.6275C54.811 73.6275 52.8774 84.2697 58.1625 84.2697C60.0961 84.2697 62.0297 81.7941 62.9063 80.5181V80.5436C62.9063 80.5436 62.9578 80.4671 63.061 80.2884C63.1691 80.1301 63.2723 79.9685 63.3703 79.8038V79.7527C64.1438 78.4256 65.8711 75.3887 68.4492 70.3611C71.7748 63.8788 74.9719 55.7631 74.9719 55.7631C74.9719 55.7631 75.2813 57.7538 76.2352 61.0204C76.8021 62.9603 78.0396 65.0782 78.9935 67.1454C78.2201 68.2173 77.756 68.8301 77.756 68.8301L77.7818 68.8556C77.1633 69.6722 76.467 70.5402 75.7453 71.4077C73.1157 74.5212 69.9703 78.0689 69.5578 79.0897C69.068 80.2889 69.1711 81.1822 70.125 81.897C70.8211 82.4074 72.0586 82.5092 73.3735 82.4074C75.7453 82.254 77.3953 81.6673 78.2203 81.3098C79.5094 80.8504 80.9789 80.1613 82.3969 79.1405C84.975 77.2522 86.5477 74.5725 86.393 70.9996C86.3157 69.0345 85.6711 67.0949 84.8719 65.2574C85.1039 64.9256 85.3362 64.5936 85.568 64.2366C89.6414 58.341 92.7868 51.859 92.7868 51.859C92.7868 51.859 93.0961 53.8496 94.05 57.1163C94.5396 58.7751 95.5196 60.5873 96.3961 62.3738C92.5805 65.4618 90.1828 69.0347 89.3578 71.3827C87.8368 75.7212 89.0227 77.6863 91.2657 78.1457C92.2709 78.3498 93.7149 77.8905 94.7974 77.4311C96.1381 76.9972 97.7623 76.2569 99.2578 75.1597C101.836 73.2712 104.311 70.6426 104.182 67.0952C104.105 65.4618 103.666 63.854 103.073 62.3228C106.322 60.9957 110.524 60.2301 115.861 60.8681C127.334 62.1952 129.602 69.2899 129.164 72.2504C128.726 75.211 126.328 76.8441 125.529 77.3545C124.73 77.8394 124.472 78.0183 124.549 78.3754C124.652 78.9116 125.013 78.8858 125.709 78.784C126.663 78.6306 131.742 76.3595 131.948 70.8983C132.258 63.879 125.529 56.2228 113.592 56.2991ZM25.111 85.8267C21.3211 89.9355 15.9844 91.4923 13.7157 90.1652C11.2664 88.7616 12.2201 82.7131 16.8868 78.3491C19.7227 75.6949 23.4094 73.2449 25.8328 71.7392C26.3743 71.4074 27.1993 70.9228 28.1789 70.3355C28.3336 70.2337 28.4368 70.1824 28.4368 70.1824C28.6172 70.0803 28.8235 69.9527 29.0297 69.8251C30.7571 76.0522 29.1071 81.5137 25.111 85.8267ZM52.8258 67.171C51.511 70.3611 48.7266 78.5532 47.0508 78.0939C45.6068 77.7111 44.7305 71.5095 46.767 65.3845C47.7982 62.2962 49.9896 58.6215 51.2787 57.1921C53.3672 54.8952 55.6357 54.1296 56.2032 55.0738C56.8735 56.2991 53.6508 65.1803 52.8258 67.171ZM75.6938 77.9918C75.1266 78.2728 74.611 78.4767 74.3789 78.3238C74.1985 78.2217 74.6107 77.8389 74.6107 77.8389C74.6107 77.8389 77.4724 74.8019 78.6068 73.3983C79.2513 72.5819 80.0248 71.6376 80.8498 70.5655V70.8717C80.85 74.5465 77.2922 76.9965 75.6938 77.9918ZM93.3279 74.0105C92.9154 73.7043 92.9672 72.76 94.3591 69.7996C94.9008 68.6256 96.1381 66.6605 98.2779 64.7975C98.5357 65.5631 98.6907 66.303 98.6646 66.9923C98.6391 71.5861 95.3391 73.296 93.3279 74.0105Z" fill="#CDB4EB"/>
</g>
<defs>
<clipPath id="clip0">
<rect width="132" height="98" fill="white"/>
</clipPath>
</defs>
</svg>
