<svg width="90" height="90" viewBox="0 0 90 90" fill="none" xmlns="http://www.w3.org/2000/svg">
<path d="M89.8727 44.8885C89.8727 69.6786 69.7756 89.776 44.9841 89.776C20.1919 89.776 0.0952148 69.6786 0.0952148 44.8885C0.0952148 20.0971 20.1926 0 44.9841 0C69.776 0 89.8727 20.0971 89.8727 44.8885Z" fill="#CDB4EB"/>
<path d="M14.4609 38.8944C11.1496 38.8944 8.4668 41.5771 8.4668 44.8885C8.4668 48.1981 11.1496 50.8812 14.4609 50.8812C17.7709 50.8812 20.4537 48.1981 20.4537 44.8885C20.4537 41.5771 17.7709 38.8944 14.4609 38.8944ZM57.2514 66.1327C54.3851 67.7886 53.4018 71.4519 55.0576 74.3167C56.7117 77.1834 60.375 78.166 63.2416 76.5105C66.1079 74.8564 67.0909 71.1931 65.4354 68.3261C63.7813 65.4616 60.1159 64.479 57.2514 66.1327ZM27.4789 44.8885C27.4789 38.9661 30.4208 33.7334 34.9219 30.5652L30.5403 23.2266C25.2971 26.7317 21.3955 32.0874 19.7741 38.3603C21.6662 39.9037 22.877 42.2539 22.877 44.8882C22.877 47.521 21.6662 49.8712 19.7741 51.4149C21.3934 57.6892 25.295 63.0457 30.5403 66.5507L34.9219 59.2101C30.4208 56.0436 27.4789 50.8113 27.4789 44.8885ZM44.9839 27.3818C54.1291 27.3818 61.6322 34.3933 62.4197 43.3357L70.9591 43.2098C70.5394 36.6082 67.6552 30.6815 63.2241 26.3236C60.9452 27.1845 58.3127 27.0527 56.0381 25.7414C53.7589 24.4262 52.3298 22.2075 51.9393 19.7993C49.6738 19.1723 47.3341 18.8542 44.9836 18.8535C40.9813 18.8495 37.0323 19.7715 33.4457 21.5476L37.6099 29.0102C39.9195 27.9352 42.4365 27.3794 44.9839 27.3818ZM44.9839 62.3939C42.4366 62.3961 39.9197 61.8403 37.6103 60.7654L33.446 68.2273C37.0322 70.0053 40.9815 70.9284 44.9843 70.9242C47.3349 70.9236 49.6746 70.6047 51.9396 69.976C52.3302 67.5678 53.7596 65.3512 56.0381 64.0339C58.3148 62.7201 60.9456 62.5907 63.2241 63.4517C67.6555 59.0937 70.5394 53.1671 70.9598 46.5655L62.4179 46.4396C61.6322 55.3844 54.1295 62.3935 44.9839 62.3935V62.3939ZM57.2493 23.6408C60.1159 25.2959 63.7795 24.3158 65.4333 21.4491C67.0891 18.5825 66.1083 14.9189 63.2416 13.263C60.375 11.6093 56.7117 12.5915 55.0555 15.4582C53.4021 18.3234 54.3847 21.9867 57.2493 23.6408Z" fill="#F8F5FC"/>
</svg>
